<svg width="138" height="71" viewBox="0 0 138 71" fill="none" xmlns="http://www.w3.org/2000/svg">
<mask id="path-1-inside-1_3_188" fill="white">
<path d="M0 35.5C0 15.8939 15.8939 0 35.5 0H102.5C122.106 0 138 15.8939 138 35.5C138 55.1061 122.106 71 102.5 71H35.5C15.8939 71 0 55.1061 0 35.5Z"/>
</mask>
<path d="M47.9393 34.9393C47.3536 35.5251 47.3536 36.4749 47.9393 37.0607L57.4853 46.6066C58.0711 47.1924 59.0208 47.1924 59.6066 46.6066C60.1924 46.0208 60.1924 45.0711 59.6066 44.4853L51.1213 36L59.6066 27.5147C60.1924 26.9289 60.1924 25.9792 59.6066 25.3934C59.0208 24.8076 58.0711 24.8076 57.4853 25.3934L47.9393 34.9393ZM90 34.5H49V37.5H90V34.5ZM35.5 3H102.5V-3H35.5V3ZM102.5 68H35.5V74H102.5V68ZM35.5 68C17.5507 68 3 53.4493 3 35.5H-3C-3 56.763 14.237 74 35.5 74V68ZM135 35.5C135 53.4493 120.449 68 102.5 68V74C123.763 74 141 56.763 141 35.5H135ZM102.5 3C120.449 3 135 17.5507 135 35.5H141C141 14.237 123.763 -3 102.5 -3V3ZM35.5 -3C14.237 -3 -3 14.237 -3 35.5H3C3 17.5507 17.5507 3 35.5 3V-3Z" fill="#EC8813" mask="url(#path-1-inside-1_3_188)"/>
</svg>
